<svg fill="none" height="90" viewBox="0 0 392 90" width="392" xmlns="http://www.w3.org/2000/svg" xmlns:xlink="http://www.w3.org/1999/xlink"><filter id="a" color-interpolation-filters="sRGB" filterUnits="userSpaceOnUse" height="630.309" width="1154.3" x="-552.554" y="-394.162"><feFlood flood-opacity="0" result="BackgroundImageFix"/><feBlend in="SourceGraphic" in2="BackgroundImageFix" mode="normal" result="shape"/><feGaussianBlur result="effect1_foregroundBlur_2540_6102" stdDeviation="10.545"/></filter><filter id="b" color-interpolation-filters="sRGB" filterUnits="userSpaceOnUse" height="519.191" width="944.15" x="-455.97" y="-305.309"><feFlood flood-opacity="0" result="BackgroundImageFix"/><feBlend in="SourceGraphic" in2="BackgroundImageFix" mode="normal" result="shape"/><feGaussianBlur result="effect1_foregroundBlur_2540_6102" stdDeviation="10.545"/></filter><filter id="c" color-interpolation-filters="sRGB" filterUnits="userSpaceOnUse" height="510.383" width="944.15" x="-455.968" y="-305.309"><feFlood flood-opacity="0" result="BackgroundImageFix"/><feBlend in="SourceGraphic" in2="BackgroundImageFix" mode="normal" result="shape"/><feGaussianBlur result="effect1_foregroundBlur_2540_6102" stdDeviation="10.545"/></filter><filter id="d" color-interpolation-filters="sRGB" filterUnits="userSpaceOnUse" height="592.711" width="1098.09" x="-532.512" y="-351.232"><feFlood flood-opacity="0" result="BackgroundImageFix"/><feBlend in="SourceGraphic" in2="BackgroundImageFix" mode="normal" result="shape"/><feGaussianBlur result="effect1_foregroundBlur_2540_6102" stdDeviation="22.2616"/></filter><filter id="e" color-interpolation-filters="sRGB" filterUnits="userSpaceOnUse" height="489.77" width="944.15" x="-455.968" y="-305.308"><feFlood flood-opacity="0" result="BackgroundImageFix"/><feBlend in="SourceGraphic" in2="BackgroundImageFix" mode="normal" result="shape"/><feGaussianBlur result="effect1_foregroundBlur_2540_6102" stdDeviation="10.545"/></filter><filter id="f" color-interpolation-filters="sRGB" filterUnits="userSpaceOnUse" height="471.083" width="944.15" x="-455.969" y="-305.308"><feFlood flood-opacity="0" result="BackgroundImageFix"/><feBlend in="SourceGraphic" in2="BackgroundImageFix" mode="normal" result="shape"/><feGaussianBlur result="effect1_foregroundBlur_2540_6102" stdDeviation="10.545"/></filter><clipPath id="g"><path d="m0 0h392v90h-392z"/></clipPath><mask id="h" height="90" maskUnits="userSpaceOnUse" width="90" x="0" y="0"><path d="m45 0 13.7766 11.7403 18.0432 1.4399 1.4399 18.0432 11.7403 13.7766-11.7403 13.7766-1.4399 18.0432-18.0432 1.4399-13.7766 11.7403-13.7766-11.7403-18.0432-1.4399-1.4399-18.0432-11.7403-13.7766 11.7403-13.7766 1.4399-18.0432 18.0432-1.4399z" fill="#d9d9d9"/></mask><g clip-path="url(#g)"><g mask="url(#h)"><path d="m-3.70151-12.333h98.6301v115.89h-98.6301z" fill="#0d0d0e"/><g filter="url(#a)"><path d="m580.658-373.072c-156.272 182.889-597.4767 526.789-1112.122 439.2727 176.982 179.5413 647.182 343.0453 1112.122-439.2727z" fill="#002e48"/></g><g filter="url(#b)"><path d="m467.09-284.219c-126.736 148.338-484.5613 427.263-901.97 356.2529 143.55 145.6381 524.9144 278.2811 901.97-356.2529z" fill="#0072a3"/></g><g filter="url(#c)"><path d="m467.092-284.219c-126.736 148.339-468.95948 479.724-901.97 356.2536 143.55 145.6384 533.1481 249.1934 901.97-356.2536z" fill="#00c2ce"/></g><g filter="url(#d)"><path d="m521.05-306.709c-149.216 153.878-546.9076 502.107-1009.039 414.767 145.283 130.802 561.6519 202.054 1009.039-414.767z" fill="#ef6619"/></g><g filter="url(#e)"><path d="m467.092-284.218c-126.736 148.339-458.31401 515.322-901.97 356.2537 139.975 110.8853 526.6294 229.8823 901.97-356.2537z" fill="#cf7154"/></g><g filter="url(#f)"><path d="m467.091-284.219c-126.736 148.339-439.6243 563.862-901.97 356.2539 192.031 114.9971 532.1667 154.3081 901.97-356.2539z" fill="#f1f9a0"/></g></g><path d="m183.31 74h-9.63v-60.3h9.63zm-45.09 0h-9.72v-60.3h9.72zm40.23-26.01h-46.8v-8.73h46.8zm20.246 26.01h-10.8l26.91-60.3h13.68l26.91 60.3h-10.98l-18.99-42.75-3.51-8.55h-.72l-3.51 8.55zm42.75-15.66h-40.23v-8.73h40.23zm48.06 16.56c-6.3 0-11.82-1.26-16.56-3.78-4.68-2.58-8.34-6.18-10.98-10.8-2.58-4.68-3.87-10.17-3.87-16.47s1.29-11.76 3.87-16.38c2.64-4.68 6.3-8.28 10.98-10.8 4.74-2.58 10.26-3.87 16.56-3.87 6.42 0 11.97 1.29 16.65 3.87 4.68 2.52 8.31 6.12 10.89 10.8 2.64 4.62 3.96 10.08 3.96 16.38s-1.32 11.79-3.96 16.47c-2.58 4.62-6.21 8.22-10.89 10.8-4.68 2.52-10.23 3.78-16.65 3.78zm19.8 11.79h-12.24l-14.31-19.26h10.89zm-19.8-21.15c4.74 0 8.67-.75 11.79-2.25 3.18-1.56 5.55-3.93 7.11-7.11 1.56-3.24 2.34-7.35 2.34-12.33 0-5.04-.78-9.15-2.34-12.33s-3.93-5.52-7.11-7.02c-3.12-1.56-7.05-2.34-11.79-2.34s-8.7.78-11.88 2.34c-3.12 1.5-5.46 3.84-7.02 7.02-1.5 3.18-2.25 7.29-2.25 12.33 0 4.98.75 9.09 2.25 12.33 1.56 3.18 3.9 5.55 7.02 7.11 3.18 1.5 7.14 2.25 11.88 2.25zm68.292 9.36c-6.3 0-11.82-1.26-16.56-3.78-4.68-2.58-8.34-6.18-10.98-10.8-2.58-4.68-3.87-10.17-3.87-16.47s1.29-11.76 3.87-16.38c2.64-4.68 6.3-8.28 10.98-10.8 4.74-2.58 10.26-3.87 16.56-3.87 6.42 0 11.97 1.29 16.65 3.87 4.68 2.52 8.31 6.12 10.89 10.8 2.64 4.62 3.96 10.08 3.96 16.38s-1.32 11.79-3.96 16.47c-2.58 4.62-6.21 8.22-10.89 10.8-4.68 2.52-10.23 3.78-16.65 3.78zm19.8 11.79h-12.24l-14.31-19.26h10.89zm-19.8-21.15c4.74 0 8.67-.75 11.79-2.25 3.18-1.56 5.55-3.93 7.11-7.11 1.56-3.24 2.34-7.35 2.34-12.33 0-5.04-.78-9.15-2.34-12.33s-3.93-5.52-7.11-7.02c-3.12-1.56-7.05-2.34-11.79-2.34s-8.7.78-11.88 2.34c-3.12 1.5-5.46 3.84-7.02 7.02-1.5 3.18-2.25 7.29-2.25 12.33 0 4.98.75 9.09 2.25 12.33 1.56 3.18 3.9 5.55 7.02 7.11 3.18 1.5 7.14 2.25 11.88 2.25z" fill="#0d0d0e"/></g></svg>